<mxfile host="app.diagrams.net" modified="2024-06-21T08:38:15.904Z" agent="Mozilla/5.0 (Windows NT 10.0; Win64; x64) AppleWebKit/537.36 (KHTML, like Gecko) Chrome/126.0.0.0 Safari/537.36" etag="7IgOOIbugYFivJUe1Mi3" version="24.6.0" type="device">
  <diagram name="Page-1" id="-sziBjZJHItNW8JcKP3R">
    <mxGraphModel dx="1050" dy="522" grid="1" gridSize="10" guides="1" tooltips="1" connect="1" arrows="1" fold="1" page="1" pageScale="1" pageWidth="850" pageHeight="1100" math="0" shadow="0">
      <root>
        <mxCell id="0" />
        <mxCell id="1" parent="0" />
        <mxCell id="2byK3GgwegAc7sSihD56-9" value="User" style="swimlane;fontStyle=1;align=center;verticalAlign=top;childLayout=stackLayout;horizontal=1;startSize=26;horizontalStack=0;resizeParent=1;resizeParentMax=0;resizeLast=0;collapsible=1;marginBottom=0;whiteSpace=wrap;html=1;flipH=0;flipV=0;direction=east;fillColor=#ffe6cc;strokeColor=#d79b00;" vertex="1" parent="1">
          <mxGeometry x="40" y="20" width="130" height="220" as="geometry">
            <mxRectangle x="40" y="110" width="70" height="30" as="alternateBounds" />
          </mxGeometry>
        </mxCell>
        <mxCell id="2byK3GgwegAc7sSihD56-10" value="User_id&lt;div&gt;username&lt;/div&gt;&lt;div&gt;password&lt;/div&gt;&lt;div&gt;email&lt;/div&gt;&lt;div&gt;fullname&lt;/div&gt;&lt;div&gt;user_type&lt;/div&gt;&lt;div&gt;created_at&lt;/div&gt;" style="text;strokeColor=none;fillColor=none;align=center;verticalAlign=top;spacingLeft=4;spacingRight=4;overflow=hidden;rotatable=0;points=[[0,0.5],[1,0.5]];portConstraint=eastwest;whiteSpace=wrap;html=1;" vertex="1" parent="2byK3GgwegAc7sSihD56-9">
          <mxGeometry y="26" width="130" height="114" as="geometry" />
        </mxCell>
        <mxCell id="2byK3GgwegAc7sSihD56-11" value="" style="line;strokeWidth=1;fillColor=none;align=left;verticalAlign=middle;spacingTop=-1;spacingLeft=3;spacingRight=3;rotatable=0;labelPosition=right;points=[];portConstraint=eastwest;strokeColor=inherit;" vertex="1" parent="2byK3GgwegAc7sSihD56-9">
          <mxGeometry y="140" width="130" height="8" as="geometry" />
        </mxCell>
        <mxCell id="2byK3GgwegAc7sSihD56-12" value="create_user()&lt;div&gt;update_user()&lt;/div&gt;&lt;div&gt;delete_user()&lt;/div&gt;&lt;div&gt;get_user()&lt;/div&gt;" style="text;strokeColor=none;fillColor=none;align=center;verticalAlign=top;spacingLeft=4;spacingRight=4;overflow=hidden;rotatable=0;points=[[0,0.5],[1,0.5]];portConstraint=eastwest;whiteSpace=wrap;html=1;" vertex="1" parent="2byK3GgwegAc7sSihD56-9">
          <mxGeometry y="148" width="130" height="72" as="geometry" />
        </mxCell>
        <mxCell id="2byK3GgwegAc7sSihD56-13" value="Vehicle" style="swimlane;fontStyle=1;align=center;verticalAlign=top;childLayout=stackLayout;horizontal=1;startSize=26;horizontalStack=0;resizeParent=1;resizeParentMax=0;resizeLast=0;collapsible=1;marginBottom=0;whiteSpace=wrap;html=1;flipH=0;flipV=0;direction=east;fillColor=#dae8fc;strokeColor=#6c8ebf;" vertex="1" parent="1">
          <mxGeometry x="300" y="20" width="130" height="260" as="geometry">
            <mxRectangle x="40" y="110" width="70" height="30" as="alternateBounds" />
          </mxGeometry>
        </mxCell>
        <mxCell id="2byK3GgwegAc7sSihD56-14" value="vehicle_id&lt;div&gt;make&lt;/div&gt;&lt;div&gt;model&lt;/div&gt;&lt;div&gt;year&lt;/div&gt;&lt;div&gt;battery_capacity&lt;/div&gt;&lt;div&gt;range_km&lt;/div&gt;&lt;div&gt;charging_time&lt;/div&gt;&lt;div&gt;price&lt;/div&gt;&lt;div&gt;availability&lt;/div&gt;&lt;div&gt;created_at&lt;/div&gt;" style="text;strokeColor=none;fillColor=none;align=center;verticalAlign=top;spacingLeft=4;spacingRight=4;overflow=hidden;rotatable=0;points=[[0,0.5],[1,0.5]];portConstraint=eastwest;whiteSpace=wrap;html=1;" vertex="1" parent="2byK3GgwegAc7sSihD56-13">
          <mxGeometry y="26" width="130" height="154" as="geometry" />
        </mxCell>
        <mxCell id="2byK3GgwegAc7sSihD56-15" value="" style="line;strokeWidth=1;fillColor=none;align=left;verticalAlign=middle;spacingTop=-1;spacingLeft=3;spacingRight=3;rotatable=0;labelPosition=right;points=[];portConstraint=eastwest;strokeColor=inherit;" vertex="1" parent="2byK3GgwegAc7sSihD56-13">
          <mxGeometry y="180" width="130" height="8" as="geometry" />
        </mxCell>
        <mxCell id="2byK3GgwegAc7sSihD56-16" value="add_vehicle()&lt;div&gt;update_vehicle()&lt;/div&gt;&lt;div&gt;delete_vehicle()&lt;/div&gt;&lt;div&gt;get_vehicle()&lt;/div&gt;" style="text;strokeColor=none;fillColor=none;align=center;verticalAlign=top;spacingLeft=4;spacingRight=4;overflow=hidden;rotatable=0;points=[[0,0.5],[1,0.5]];portConstraint=eastwest;whiteSpace=wrap;html=1;" vertex="1" parent="2byK3GgwegAc7sSihD56-13">
          <mxGeometry y="188" width="130" height="72" as="geometry" />
        </mxCell>
        <mxCell id="2byK3GgwegAc7sSihD56-17" value="Charging Station" style="swimlane;fontStyle=1;align=center;verticalAlign=top;childLayout=stackLayout;horizontal=1;startSize=26;horizontalStack=0;resizeParent=1;resizeParentMax=0;resizeLast=0;collapsible=1;marginBottom=0;whiteSpace=wrap;html=1;flipH=0;flipV=0;direction=east;fillColor=#d5e8d4;strokeColor=#82b366;" vertex="1" parent="1">
          <mxGeometry x="550" y="20" width="130" height="220" as="geometry">
            <mxRectangle x="40" y="110" width="70" height="30" as="alternateBounds" />
          </mxGeometry>
        </mxCell>
        <mxCell id="2byK3GgwegAc7sSihD56-18" value="station_id&lt;div&gt;name&lt;/div&gt;&lt;div&gt;location&lt;/div&gt;&lt;div&gt;charger_type&lt;/div&gt;&lt;div&gt;availability&lt;/div&gt;&lt;div&gt;pricing&lt;/div&gt;&lt;div&gt;created_at&lt;/div&gt;" style="text;strokeColor=none;fillColor=none;align=center;verticalAlign=top;spacingLeft=4;spacingRight=4;overflow=hidden;rotatable=0;points=[[0,0.5],[1,0.5]];portConstraint=eastwest;whiteSpace=wrap;html=1;" vertex="1" parent="2byK3GgwegAc7sSihD56-17">
          <mxGeometry y="26" width="130" height="114" as="geometry" />
        </mxCell>
        <mxCell id="2byK3GgwegAc7sSihD56-19" value="" style="line;strokeWidth=1;fillColor=none;align=left;verticalAlign=middle;spacingTop=-1;spacingLeft=3;spacingRight=3;rotatable=0;labelPosition=right;points=[];portConstraint=eastwest;strokeColor=inherit;" vertex="1" parent="2byK3GgwegAc7sSihD56-17">
          <mxGeometry y="140" width="130" height="8" as="geometry" />
        </mxCell>
        <mxCell id="2byK3GgwegAc7sSihD56-20" value="add_station()&lt;div&gt;update_station()&lt;/div&gt;&lt;div&gt;delete_station()&lt;/div&gt;&lt;div&gt;get_station()&lt;/div&gt;" style="text;strokeColor=none;fillColor=none;align=center;verticalAlign=top;spacingLeft=4;spacingRight=4;overflow=hidden;rotatable=0;points=[[0,0.5],[1,0.5]];portConstraint=eastwest;whiteSpace=wrap;html=1;" vertex="1" parent="2byK3GgwegAc7sSihD56-17">
          <mxGeometry y="148" width="130" height="72" as="geometry" />
        </mxCell>
        <mxCell id="2byK3GgwegAc7sSihD56-21" value="Review" style="swimlane;fontStyle=1;align=center;verticalAlign=top;childLayout=stackLayout;horizontal=1;startSize=26;horizontalStack=0;resizeParent=1;resizeParentMax=0;resizeLast=0;collapsible=1;marginBottom=0;whiteSpace=wrap;html=1;flipH=0;flipV=0;direction=east;fillColor=#e1d5e7;strokeColor=#9673a6;" vertex="1" parent="1">
          <mxGeometry x="161" y="340" width="130" height="220" as="geometry">
            <mxRectangle x="40" y="110" width="70" height="30" as="alternateBounds" />
          </mxGeometry>
        </mxCell>
        <mxCell id="2byK3GgwegAc7sSihD56-22" value="review_id&lt;div&gt;user_id&lt;/div&gt;&lt;div&gt;vehicle_id&lt;/div&gt;&lt;div&gt;rating&lt;/div&gt;&lt;div&gt;station_id&lt;/div&gt;&lt;div&gt;review_text&lt;/div&gt;&lt;div&gt;created_at&lt;/div&gt;" style="text;strokeColor=none;fillColor=none;align=center;verticalAlign=top;spacingLeft=4;spacingRight=4;overflow=hidden;rotatable=0;points=[[0,0.5],[1,0.5]];portConstraint=eastwest;whiteSpace=wrap;html=1;" vertex="1" parent="2byK3GgwegAc7sSihD56-21">
          <mxGeometry y="26" width="130" height="114" as="geometry" />
        </mxCell>
        <mxCell id="2byK3GgwegAc7sSihD56-23" value="" style="line;strokeWidth=1;fillColor=none;align=left;verticalAlign=middle;spacingTop=-1;spacingLeft=3;spacingRight=3;rotatable=0;labelPosition=right;points=[];portConstraint=eastwest;strokeColor=inherit;" vertex="1" parent="2byK3GgwegAc7sSihD56-21">
          <mxGeometry y="140" width="130" height="8" as="geometry" />
        </mxCell>
        <mxCell id="2byK3GgwegAc7sSihD56-24" value="add_review()&lt;div&gt;update_review()&lt;/div&gt;&lt;div&gt;delete_review()&lt;/div&gt;&lt;div&gt;get_review()&lt;/div&gt;" style="text;strokeColor=none;fillColor=none;align=center;verticalAlign=top;spacingLeft=4;spacingRight=4;overflow=hidden;rotatable=0;points=[[0,0.5],[1,0.5]];portConstraint=eastwest;whiteSpace=wrap;html=1;" vertex="1" parent="2byK3GgwegAc7sSihD56-21">
          <mxGeometry y="148" width="130" height="72" as="geometry" />
        </mxCell>
        <mxCell id="2byK3GgwegAc7sSihD56-25" value="Admin Activity" style="swimlane;fontStyle=1;align=center;verticalAlign=top;childLayout=stackLayout;horizontal=1;startSize=26;horizontalStack=0;resizeParent=1;resizeParentMax=0;resizeLast=0;collapsible=1;marginBottom=0;whiteSpace=wrap;html=1;flipH=0;flipV=0;direction=east;fillColor=#f8cecc;strokeColor=#b85450;" vertex="1" parent="1">
          <mxGeometry x="425" y="355" width="130" height="190" as="geometry">
            <mxRectangle x="40" y="110" width="70" height="30" as="alternateBounds" />
          </mxGeometry>
        </mxCell>
        <mxCell id="2byK3GgwegAc7sSihD56-26" value="activity_id&lt;div&gt;admin_id&lt;/div&gt;&lt;div&gt;action&lt;/div&gt;&lt;div&gt;target_id&lt;/div&gt;&lt;div&gt;target_type&lt;/div&gt;&lt;div&gt;action_time&lt;/div&gt;" style="text;strokeColor=none;fillColor=none;align=center;verticalAlign=top;spacingLeft=4;spacingRight=4;overflow=hidden;rotatable=0;points=[[0,0.5],[1,0.5]];portConstraint=eastwest;whiteSpace=wrap;html=1;" vertex="1" parent="2byK3GgwegAc7sSihD56-25">
          <mxGeometry y="26" width="130" height="104" as="geometry" />
        </mxCell>
        <mxCell id="2byK3GgwegAc7sSihD56-27" value="" style="line;strokeWidth=1;fillColor=none;align=left;verticalAlign=middle;spacingTop=-1;spacingLeft=3;spacingRight=3;rotatable=0;labelPosition=right;points=[];portConstraint=eastwest;strokeColor=inherit;" vertex="1" parent="2byK3GgwegAc7sSihD56-25">
          <mxGeometry y="130" width="130" height="8" as="geometry" />
        </mxCell>
        <mxCell id="2byK3GgwegAc7sSihD56-28" value="log_activity()&lt;div&gt;get_activity()&lt;/div&gt;" style="text;strokeColor=none;fillColor=none;align=center;verticalAlign=top;spacingLeft=4;spacingRight=4;overflow=hidden;rotatable=0;points=[[0,0.5],[1,0.5]];portConstraint=eastwest;whiteSpace=wrap;html=1;" vertex="1" parent="2byK3GgwegAc7sSihD56-25">
          <mxGeometry y="138" width="130" height="52" as="geometry" />
        </mxCell>
        <mxCell id="2byK3GgwegAc7sSihD56-29" value="" style="edgeStyle=entityRelationEdgeStyle;fontSize=12;html=1;endArrow=ERoneToMany;rounded=0;exitX=1;exitY=0.5;exitDx=0;exitDy=0;" edge="1" parent="1" source="2byK3GgwegAc7sSihD56-12">
          <mxGeometry width="100" height="100" relative="1" as="geometry">
            <mxPoint x="370" y="330" as="sourcePoint" />
            <mxPoint x="160" y="380" as="targetPoint" />
            <Array as="points">
              <mxPoint x="170" y="380" />
              <mxPoint x="170" y="380" />
            </Array>
          </mxGeometry>
        </mxCell>
        <mxCell id="2byK3GgwegAc7sSihD56-30" value="" style="edgeStyle=entityRelationEdgeStyle;fontSize=12;html=1;endArrow=ERoneToMany;rounded=0;exitX=0;exitY=0.5;exitDx=0;exitDy=0;entryX=1.029;entryY=-0.007;entryDx=0;entryDy=0;entryPerimeter=0;" edge="1" parent="1" source="2byK3GgwegAc7sSihD56-16" target="2byK3GgwegAc7sSihD56-22">
          <mxGeometry width="100" height="100" relative="1" as="geometry">
            <mxPoint x="290" y="260" as="sourcePoint" />
            <mxPoint x="330" y="390" as="targetPoint" />
          </mxGeometry>
        </mxCell>
        <mxCell id="2byK3GgwegAc7sSihD56-31" value="" style="edgeStyle=entityRelationEdgeStyle;fontSize=12;html=1;endArrow=ERoneToMany;rounded=0;exitX=-0.018;exitY=0.161;exitDx=0;exitDy=0;exitPerimeter=0;entryX=1.029;entryY=0.702;entryDx=0;entryDy=0;entryPerimeter=0;" edge="1" parent="1" source="2byK3GgwegAc7sSihD56-20" target="2byK3GgwegAc7sSihD56-22">
          <mxGeometry width="100" height="100" relative="1" as="geometry">
            <mxPoint x="370" y="330" as="sourcePoint" />
            <mxPoint x="470" y="230" as="targetPoint" />
          </mxGeometry>
        </mxCell>
        <mxCell id="2byK3GgwegAc7sSihD56-32" value="Admin" style="swimlane;fontStyle=1;align=center;verticalAlign=top;childLayout=stackLayout;horizontal=1;startSize=26;horizontalStack=0;resizeParent=1;resizeParentMax=0;resizeLast=0;collapsible=1;marginBottom=0;whiteSpace=wrap;html=1;flipH=0;flipV=0;direction=east;fillColor=#f8cecc;strokeColor=#b85450;" vertex="1" parent="1">
          <mxGeometry x="650" y="310" width="130" height="210" as="geometry">
            <mxRectangle x="40" y="110" width="70" height="30" as="alternateBounds" />
          </mxGeometry>
        </mxCell>
        <mxCell id="2byK3GgwegAc7sSihD56-33" value="user_id&lt;div&gt;username&lt;/div&gt;&lt;div&gt;password&lt;/div&gt;&lt;div&gt;email&lt;/div&gt;&lt;div&gt;full_name&lt;/div&gt;&lt;div&gt;user_type&lt;/div&gt;&lt;div&gt;created_at&lt;/div&gt;" style="text;strokeColor=none;fillColor=none;align=center;verticalAlign=top;spacingLeft=4;spacingRight=4;overflow=hidden;rotatable=0;points=[[0,0.5],[1,0.5]];portConstraint=eastwest;whiteSpace=wrap;html=1;" vertex="1" parent="2byK3GgwegAc7sSihD56-32">
          <mxGeometry y="26" width="130" height="104" as="geometry" />
        </mxCell>
        <mxCell id="2byK3GgwegAc7sSihD56-34" value="" style="line;strokeWidth=1;fillColor=none;align=left;verticalAlign=middle;spacingTop=-1;spacingLeft=3;spacingRight=3;rotatable=0;labelPosition=right;points=[];portConstraint=eastwest;strokeColor=inherit;" vertex="1" parent="2byK3GgwegAc7sSihD56-32">
          <mxGeometry y="130" width="130" height="8" as="geometry" />
        </mxCell>
        <mxCell id="2byK3GgwegAc7sSihD56-35" value="create_admin()&lt;div&gt;delete_admin()&lt;/div&gt;&lt;div&gt;update_admin()&lt;/div&gt;&lt;div&gt;get_admin()&lt;/div&gt;" style="text;strokeColor=none;fillColor=none;align=center;verticalAlign=top;spacingLeft=4;spacingRight=4;overflow=hidden;rotatable=0;points=[[0,0.5],[1,0.5]];portConstraint=eastwest;whiteSpace=wrap;html=1;" vertex="1" parent="2byK3GgwegAc7sSihD56-32">
          <mxGeometry y="138" width="130" height="72" as="geometry" />
        </mxCell>
        <mxCell id="2byK3GgwegAc7sSihD56-36" value="" style="edgeStyle=entityRelationEdgeStyle;fontSize=12;html=1;endArrow=ERoneToMany;rounded=0;exitX=-0.006;exitY=0.091;exitDx=0;exitDy=0;exitPerimeter=0;" edge="1" parent="1" source="2byK3GgwegAc7sSihD56-32" target="2byK3GgwegAc7sSihD56-26">
          <mxGeometry width="100" height="100" relative="1" as="geometry">
            <mxPoint x="558" y="190" as="sourcePoint" />
            <mxPoint x="305" y="456" as="targetPoint" />
          </mxGeometry>
        </mxCell>
      </root>
    </mxGraphModel>
  </diagram>
</mxfile>
